<svg xmlns="http://www.w3.org/2000/svg" xmlns:xlink="http://www.w3.org/1999/xlink" viewBox="0 0 735 852"><defs><style>.cls-1{fill:#54577c;}.cls-2,.cls-3{fill:none;}.cls-2,.cls-5,.cls-6,.cls-7,.cls-8,.cls-9{stroke:#9698ae;stroke-miterlimit:10;}.cls-2{stroke-width:3px;}.cls-4{clip-path:url(#clip-path);}.cls-5,.cls-6,.cls-7,.cls-8,.cls-9{fill:#9698ae;}.cls-5{stroke-width:13px;}.cls-6{stroke-width:6px;}.cls-7{stroke-width:22px;}.cls-8{stroke-width:8.2px;}.cls-9{stroke-width:11px;}.cls-10{clip-path:url(#clip-path-2);}.cls-11{clip-path:url(#clip-path-3);}.cls-12{opacity:0.15;fill:url(#linear-gradient);}.cls-12,.cls-13,.cls-15{isolation:isolate;}.cls-13{font-size:116px;fill:#fff;font-family:OpenSans-Bold, Open Sans;font-weight:700;}.cls-14{fill:#7a0019;}.cls-15{font-size:20px;fill:#aeb0c9;font-family:OpenSans-Regular, Open Sans;letter-spacing:-0.01em;}</style><clipPath id="clip-path"><polygon class="cls-1" points="372 9 730.7 216.1 730.7 638.3 372 846.7 5.3 638.3 5.3 216.1 372 9"/></clipPath><clipPath id="clip-path-2"><rect class="cls-2" x="365.39" y="129.9" width="4" height="612.5"/></clipPath><clipPath id="clip-path-3"><ellipse class="cls-3" cx="368" cy="426.5" rx="442.1" ry="426.5"/></clipPath><linearGradient id="linear-gradient" x1="365.34" y1="946.22" x2="368.01" y2="-3.61" gradientTransform="matrix(1, 0, 0, -1, 0, 852)" gradientUnits="userSpaceOnUse"><stop offset="0" stop-color="#fff" stop-opacity="0.83"/><stop offset="0.56" stop-color="#fff" stop-opacity="0.37"/><stop offset="1" stop-color="#fff" stop-opacity="0"/></linearGradient></defs><title>Artboard 1</title><g id="Background"><polygon class="cls-1" points="372 9 730.7 216.1 730.7 638.3 372 846.7 5.3 638.3 5.3 216.1 372 9"/><g class="cls-4"><circle class="cls-1" cx="368" cy="439.1" r="442.1"/></g></g><g id="Forest_plot" data-name="Forest plot"><path class="cls-5" d="M643.94,439l8.58-8.58L661.1,439l-8.58,8.57Z"/><path class="cls-6" d="M681.73,439H623.31"/><path class="cls-7" d="M496.73,518.13l13.4-13.4,13.4,13.4-13.4,13.41Z"/><path class="cls-6" d="M667.12,518.13h-314"/><path class="cls-8" d="M569.91,595.82l5.94-6,5.94,6-5.94,5.94Z"/><path class="cls-6" d="M637.92,595.82H513.78"/><path class="cls-9" d="M378.36,673.5l7.64-7.64,7.63,7.64L386,681.13Z"/><path class="cls-6" d="M513.78,673.5H258.21"/><g class="cls-10"><path class="cls-2" d="M367.74,741.09V129.9"/></g><rect class="cls-2" x="365.39" y="129.9" width="4" height="612.5"/></g><g id="Contours"><g id="Contours-2" data-name="Contours"><g class="cls-11"><polyline class="cls-12" points="735.5 853 0.5 853 368.5 -107.4"/></g></g></g><g id="Overlay"><text class="cls-13" transform="translate(62.07 379.04) scale(1.03 1)">ρsychμeta</text><path class="cls-14" d="M706.1,197,428.3,36.7,368,1.8,307.7,36.7,29.9,197.1.6,214V638.2l29.3,16.9L311.1,817.5,368,850.3l56.9-32.8L706.1,655.1l29.3-16.9V214Zm0,425.3L368,817.5,29.9,622.3V231.9L368,36.7h0L706.1,231.9Z"/><text class="cls-15" transform="translate(33.85 617.01) rotate(29.88)">https://psychmeta.com</text></g></svg>