<?xml version="1.0" encoding="utf-8"?>
<!-- Generator: Adobe Illustrator 22.1.0, SVG Export Plug-In . SVG Version: 6.00 Build 0)  -->
<svg version="1.1" xmlns="http://www.w3.org/2000/svg" xmlns:xlink="http://www.w3.org/1999/xlink" x="0px" y="0px"
	 viewBox="0 0 735 852" style="enable-background:new 0 0 735 852;" xml:space="preserve">
<style type="text/css">
	.st0{clip-path:url(#SVGID_2_);}
	.st1{fill:#54577C;}
	.st2{fill:none;stroke:#000000;stroke-width:2.7741;stroke-linejoin:round;stroke-miterlimit:1;}
	.st3{fill:#9698AE;stroke:#9698AE;stroke-width:13;stroke-miterlimit:10;}
	.st4{opacity:0.3;fill:none;stroke:#FFFFFF;stroke-width:9;stroke-miterlimit:10;}
	.st5{fill:#9698AE;stroke:#9698AE;stroke-width:6;stroke-miterlimit:10;}
	.st6{fill:#9698AE;stroke:#9698AE;stroke-width:22;stroke-miterlimit:10;}
	.st7{fill:#9698AE;stroke:#9698AE;stroke-width:8.2;stroke-miterlimit:10;}
	.st8{fill:#9698AE;stroke:#9698AE;stroke-width:11;stroke-miterlimit:10;}
	.st9{clip-path:url(#SVGID_4_);}
	.st10{fill:none;stroke:#9698AE;stroke-width:3;stroke-miterlimit:10;}
	.st11{opacity:0.15;clip-path:url(#SVGID_6_);fill:url(#SVGID_7_);enable-background:new    ;}
	.st12{fill:#FFFFFF;}
	.st13{font-family:'OpenSans-Bold';}
	.st14{font-size:116px;}
	.st15{fill:#7A0019;}
	.st16{fill:#AEB0C9;}
	.st17{font-family:'OpenSans-Regular';}
	.st18{font-size:20px;}
</style>
<g id="Background">
	<g>
		<g>
			<defs>
				<polygon id="SVGID_1_" points="372,9 730.7,216.1 730.7,638.3 372,846.7 5.3,638.3 5.3,216.1 				"/>
			</defs>
			<use xlink:href="#SVGID_1_"  style="overflow:visible;fill:#54577C;"/>
			<clipPath id="SVGID_2_">
				<use xlink:href="#SVGID_1_"  style="overflow:visible;"/>
			</clipPath>
			<g class="st0">
				<circle class="st1" cx="368" cy="439.1" r="442.1"/>
			</g>
		</g>
	</g>
</g>
<g id="Forest_plot_1_">
	<path class="st2" d="M1188.1,358.7L1188.1,358.7"/>
	<path class="st2" d="M764.6,637.6L764.6,637.6"/>
	<path class="st3" d="M643.9,439l8.6-8.6l8.6,8.6l-8.6,8.6L643.9,439z"/>
	<path class="st4" d="M681.7,439L681.7,439"/>
	<path class="st5" d="M681.7,439h-58.4"/>
	<path class="st4" d="M623.3,439L623.3,439"/>
	<path class="st4" d="M667.1,450.5L667.1,450.5"/>
	<path class="st6" d="M496.7,518.1l13.4-13.4l13.4,13.4l-13.4,13.4L496.7,518.1z"/>
	<path class="st5" d="M667.1,518.1h-314"/>
	<path class="st4" d="M353.1,450.5L353.1,450.5"/>
	<path class="st7" d="M569.9,595.8l5.9-5.9l5.9,5.9l-5.9,5.9L569.9,595.8z"/>
	<path class="st4" d="M637.9,595.8L637.9,595.8"/>
	<path class="st5" d="M637.9,595.8H513.8"/>
	<path class="st4" d="M513.8,662L513.8,662"/>
	<path class="st4" d="M513.8,673.5L513.8,673.5"/>
	<path class="st8" d="M378.4,673.5l7.6-7.6l7.6,7.6l-7.6,7.6L378.4,673.5z"/>
	<path class="st5" d="M513.8,673.5H258.2"/>
	<g>
		<defs>
			<rect id="SVGID_3_" x="365.4" y="129.9" width="4" height="612.5"/>
		</defs>
		<clipPath id="SVGID_4_">
			<use xlink:href="#SVGID_3_"  style="overflow:visible;"/>
		</clipPath>
		<g class="st9">
			<path class="st10" d="M367.7,741.1V129.9"/>
		</g>
		<use xlink:href="#SVGID_3_"  style="overflow:visible;fill:none;stroke:#9698AE;stroke-width:3;stroke-miterlimit:10;"/>
	</g>
</g>
<g id="Contours_1_">
	<g id="Contours">
		<g>
			<defs>
				<ellipse id="SVGID_5_" cx="368" cy="426.5" rx="442.1" ry="426.5"/>
			</defs>
			<clipPath id="SVGID_6_">
				<use xlink:href="#SVGID_5_"  style="overflow:visible;"/>
			</clipPath>
			
				<linearGradient id="SVGID_7_" gradientUnits="userSpaceOnUse" x1="365.3433" y1="946.223" x2="368.0073" y2="-3.609" gradientTransform="matrix(1 0 0 -1 0 852)">
				<stop  offset="0" style="stop-color:#FFFFFF;stop-opacity:0.83"/>
				<stop  offset="0.56" style="stop-color:#FFFFFF;stop-opacity:0.37"/>
				<stop  offset="1" style="stop-color:#FFFFFF;stop-opacity:0"/>
			</linearGradient>
			<polyline class="st11" points="735.5,853 0.5,853 368.5,-107.4 			"/>
		</g>
	</g>
</g>
<g id="Overlay">
	<text transform="matrix(1.0254 0 0 1 62.0718 379.04)" class="st12 st13 st14">ρsychμeta</text>
	<path class="st15" d="M706.1,197L428.3,36.7L368,1.8l-60.3,34.9L29.9,197.1L0.6,214v424.2l29.3,16.9l281.2,162.4l56.9,32.8
		l56.9-32.8l281.2-162.4l29.3-16.9V214L706.1,197z M706.1,622.3L368,817.5L29.9,622.3V231.9L368,36.7l0,0l338.1,195.2V622.3z"/>
	<text transform="matrix(0.867 0.4982 -0.4982 0.867 33.862 616.9808)" class="st16 st17 st18">psychmeta.com</text>
</g>
</svg>
